# xmcd
#
# Track frame offsets:
#	182
#	19270
#	37915
#	59910
#	80527
#	95775
#	109312
#	131410
#	148807
#	164582
#	186432
#	202980
#
# Disc length: 2907 seconds
#
# Revision: 2
# Processed by: cddbd v1.5PL3 Copyright (c) Steve Scherf et al.
# Submitted via: audiograbber 1.83.01
#
DISCID=b50b590c
DTITLE=John Primer - The Real Deal
DYEAR=1995
DGENRE=Blues
TTITLE0=Stop Draggin' That Chain Around
TTITLE1=Tomorrow Might Not Be The Same
TTITLE2=Still In Love With You
TTITLE3=Blind Man Blues
TTITLE4=How Long Will You Be Mine
TTITLE5=Good Understanding
TTITLE6=Come Back Baby
TTITLE7=Cryiin' For Your Love
TTITLE8=Bad Blood
TTITLE9=I Called My Baby
TTITLE10=She Won't Give Me No Lovin'
TTITLE11=Tired And Worried
EXTD=
EXTT0=
EXTT1=
EXTT2=
EXTT3=
EXTT4=
EXTT5=
EXTT6=
EXTT7=
EXTT8=
EXTT9=
EXTT10=
EXTT11=
PLAYORDER=
